<svg width="88" height="30" viewBox="0 0 88 30" fill="none" xmlns="http://www.w3.org/2000/svg">
<g filter="url(#filter0_d_2_176)">
<path d="M79.7212 10.4725L84 22C82.7388 21.8165 81.4782 21.5869 80.194 21.3807L77.7837 15.0103L75.3066 20.8542C74.0906 20.648 72.8963 20.5786 71.6803 20.4184L76.0274 10.335L72.0856 0H75.7348L77.9418 5.77442L80.3069 0H84L79.7212 10.4725ZM69.2031 0H65.8923V19.9833C66.9732 20.0521 68.0993 20.0974 69.2031 20.2349V0ZM63.0315 19.7537C60.0139 19.5475 56.9956 19.3647 53.9104 19.2953V0H57.2881V16.0414C59.2255 16.0874 61.1623 16.2476 63.0315 16.339V19.7537ZM50.3064 7.81448V11.2519H45.6898V19.0664H42.3561V0H51.8156V3.43744H45.6898V7.81448H50.3064ZM36.6803 3.43744V19.2499C35.5541 19.2499 34.4057 19.2499 33.3019 19.2953V3.43744H29.8108V0H40.1937V3.43744H36.6803ZM26.1622 11.4347C24.676 11.4347 22.919 11.4347 21.6578 11.5042V16.6146C23.6398 16.4765 25.6218 16.3163 27.6261 16.2476V19.5475L18.2794 20.3043V0H27.6261V3.43744H21.6578V8.06605C22.9642 8.06605 24.9685 7.99731 26.1622 7.99731V11.4347ZM7.44589 9.51017V21.5182C6.22993 21.6563 5.14841 21.8165 4 22V0H7.22094L11.6126 12.4898V0H14.9909V20.5786C13.7973 20.7855 12.5813 20.8542 11.2971 21.037L7.44589 9.51017Z" fill="#E50914"/>
</g>
<defs>
<filter id="filter0_d_2_176" x="0" y="0" width="88" height="30" filterUnits="userSpaceOnUse" color-interpolation-filters="sRGB">
<feFlood flood-opacity="0" result="BackgroundImageFix"/>
<feColorMatrix in="SourceAlpha" type="matrix" values="0 0 0 0 0 0 0 0 0 0 0 0 0 0 0 0 0 0 127 0" result="hardAlpha"/>
<feOffset dy="4"/>
<feGaussianBlur stdDeviation="2"/>
<feComposite in2="hardAlpha" operator="out"/>
<feColorMatrix type="matrix" values="0 0 0 0 0 0 0 0 0 0 0 0 0 0 0 0 0 0 0.25 0"/>
<feBlend mode="normal" in2="BackgroundImageFix" result="effect1_dropShadow_2_176"/>
<feBlend mode="normal" in="SourceGraphic" in2="effect1_dropShadow_2_176" result="shape"/>
</filter>
</defs>
</svg>
